<svg id="visual" viewBox="0 0 960 540" width="960" height="540" xmlns="http://www.w3.org/2000/svg" xmlns:xlink="http://www.w3.org/1999/xlink" version="1.1"><path d="M0 98L22.8 125.2C45.7 152.3 91.3 206.7 137 210.5C182.7 214.3 228.3 167.7 274 165.3C319.7 163 365.3 205 411.2 209.3C457 213.7 503 180.3 548.8 167.2C594.7 154 640.3 161 686 158.3C731.7 155.7 777.3 143.3 823 138.3C868.7 133.3 914.3 135.7 937.2 136.8L960 138L960 541L937.2 541C914.3 541 868.7 541 823 541C777.3 541 731.7 541 686 541C640.3 541 594.7 541 548.8 541C503 541 457 541 411.2 541C365.3 541 319.7 541 274 541C228.3 541 182.7 541 137 541C91.3 541 45.7 541 22.8 541L0 541Z" fill="#f3f4f5"></path><path d="M0 205L22.8 217.3C45.7 229.7 91.3 254.3 137 270.7C182.7 287 228.3 295 274 297.3C319.7 299.7 365.3 296.3 411.2 275.7C457 255 503 217 548.8 221.7C594.7 226.3 640.3 273.7 686 295.8C731.7 318 777.3 315 823 290.5C868.7 266 914.3 220 937.2 197L960 174L960 541L937.2 541C914.3 541 868.7 541 823 541C777.3 541 731.7 541 686 541C640.3 541 594.7 541 548.8 541C503 541 457 541 411.2 541C365.3 541 319.7 541 274 541C228.3 541 182.7 541 137 541C91.3 541 45.7 541 22.8 541L0 541Z" fill="#c6def8"></path><path d="M0 283L22.8 286.5C45.7 290 91.3 297 137 296.2C182.7 295.3 228.3 286.7 274 290.7C319.7 294.7 365.3 311.3 411.2 315.7C457 320 503 312 548.8 315.5C594.7 319 640.3 334 686 344.8C731.7 355.7 777.3 362.3 823 354.7C868.7 347 914.3 325 937.2 314L960 303L960 541L937.2 541C914.3 541 868.7 541 823 541C777.3 541 731.7 541 686 541C640.3 541 594.7 541 548.8 541C503 541 457 541 411.2 541C365.3 541 319.7 541 274 541C228.3 541 182.7 541 137 541C91.3 541 45.7 541 22.8 541L0 541Z" fill="#98c8fb"></path><path d="M0 352L22.8 363.2C45.7 374.3 91.3 396.7 137 402.5C182.7 408.3 228.3 397.7 274 393.3C319.7 389 365.3 391 411.2 385.7C457 380.3 503 367.7 548.8 361C594.7 354.3 640.3 353.7 686 353.7C731.7 353.7 777.3 354.3 823 362.8C868.7 371.3 914.3 387.7 937.2 395.8L960 404L960 541L937.2 541C914.3 541 868.7 541 823 541C777.3 541 731.7 541 686 541C640.3 541 594.7 541 548.8 541C503 541 457 541 411.2 541C365.3 541 319.7 541 274 541C228.3 541 182.7 541 137 541C91.3 541 45.7 541 22.8 541L0 541Z" fill="#65b1fd"></path><path d="M0 491L22.8 482.8C45.7 474.7 91.3 458.3 137 449.7C182.7 441 228.3 440 274 438.2C319.7 436.3 365.3 433.7 411.2 438.5C457 443.3 503 455.7 548.8 459C594.7 462.3 640.3 456.7 686 449C731.7 441.3 777.3 431.7 823 425.3C868.7 419 914.3 416 937.2 414.5L960 413L960 541L937.2 541C914.3 541 868.7 541 823 541C777.3 541 731.7 541 686 541C640.3 541 594.7 541 548.8 541C503 541 457 541 411.2 541C365.3 541 319.7 541 274 541C228.3 541 182.7 541 137 541C91.3 541 45.7 541 22.8 541L0 541Z" fill="#0099ff"></path></svg>