<svg id="visual" viewBox="0 0 960 200" width="960" height="200" xmlns="http://www.w3.org/2000/svg" xmlns:xlink="http://www.w3.org/1999/xlink" version="1.1"><path d="M0 162L22.8 152C45.7 142 91.3 122 137 120.7C182.7 119.3 228.3 136.7 274 137.5C319.7 138.3 365.3 122.7 411.2 121C457 119.3 503 131.7 548.8 136.5C594.7 141.3 640.3 138.7 686 139.7C731.7 140.7 777.3 145.3 823 147.3C868.7 149.3 914.3 148.7 937.2 148.3L960 148L960 0L937.2 0C914.3 0 868.7 0 823 0C777.3 0 731.7 0 686 0C640.3 0 594.7 0 548.8 0C503 0 457 0 411.2 0C365.3 0 319.7 0 274 0C228.3 0 182.7 0 137 0C91.3 0 45.7 0 22.8 0L0 0Z" fill="#f3f4f5"></path><path d="M0 123L22.8 118.3C45.7 113.7 91.3 104.3 137 98.2C182.7 92 228.3 89 274 88.2C319.7 87.3 365.3 88.7 411.2 96.3C457 104 503 118 548.8 116.3C594.7 114.7 640.3 97.3 686 89.2C731.7 81 777.3 82 823 91C868.7 100 914.3 117 937.2 125.5L960 134L960 0L937.2 0C914.3 0 868.7 0 823 0C777.3 0 731.7 0 686 0C640.3 0 594.7 0 548.8 0C503 0 457 0 411.2 0C365.3 0 319.7 0 274 0C228.3 0 182.7 0 137 0C91.3 0 45.7 0 22.8 0L0 0Z" fill="#c6def8"></path><path d="M0 94L22.8 92.7C45.7 91.3 91.3 88.7 137 89C182.7 89.3 228.3 92.7 274 91.2C319.7 89.7 365.3 83.3 411.2 81.7C457 80 503 83 548.8 81.7C594.7 80.3 640.3 74.7 686 70.7C731.7 66.7 777.3 64.3 823 67.2C868.7 70 914.3 78 937.2 82L960 86L960 0L937.2 0C914.3 0 868.7 0 823 0C777.3 0 731.7 0 686 0C640.3 0 594.7 0 548.8 0C503 0 457 0 411.2 0C365.3 0 319.7 0 274 0C228.3 0 182.7 0 137 0C91.3 0 45.7 0 22.8 0L0 0Z" fill="#98c8fb"></path><path d="M0 68L22.8 63.8C45.7 59.7 91.3 51.3 137 49.2C182.7 47 228.3 51 274 52.7C319.7 54.3 365.3 53.7 411.2 55.7C457 57.7 503 62.3 548.8 64.8C594.7 67.3 640.3 67.7 686 67.7C731.7 67.7 777.3 67.3 823 64.2C868.7 61 914.3 55 937.2 52L960 49L960 0L937.2 0C914.3 0 868.7 0 823 0C777.3 0 731.7 0 686 0C640.3 0 594.7 0 548.8 0C503 0 457 0 411.2 0C365.3 0 319.7 0 274 0C228.3 0 182.7 0 137 0C91.3 0 45.7 0 22.8 0L0 0Z" fill="#65b1fd"></path><path d="M0 17L22.8 20C45.7 23 91.3 29 137 32.2C182.7 35.3 228.3 35.7 274 36.3C319.7 37 365.3 38 411.2 36.2C457 34.3 503 29.7 548.8 28.3C594.7 27 640.3 29 686 31.8C731.7 34.7 777.3 38.3 823 40.8C868.7 43.3 914.3 44.7 937.2 45.3L960 46L960 0L937.2 0C914.3 0 868.7 0 823 0C777.3 0 731.7 0 686 0C640.3 0 594.7 0 548.8 0C503 0 457 0 411.2 0C365.3 0 319.7 0 274 0C228.3 0 182.7 0 137 0C91.3 0 45.7 0 22.8 0L0 0Z" fill="#0099ff"></path></svg>